<svg xmlns="http://www.w3.org/2000/svg" viewBox="236 1263 2823 487" fill="none"><g fill="#1A1916" fill-rule="evenodd"><path d="M 1817.073 310.635 C 1815.933 312.084, 1815 314.129, 1815 315.180 C 1815 317.229, 1819.197 322, 1821 322 C 1822.803 322, 1827 317.229, 1827 315.180 C 1827 312.512, 1823.230 308, 1821 308 C 1819.980 308, 1818.212 309.186, 1817.073 310.635 M 1820.583 313.866 C 1820.152 314.563, 1820.070 315.403, 1820.400 315.733 C 1821.295 316.628, 1822.271 315.312, 1821.787 313.862 C 1821.449 312.846, 1821.213 312.846, 1820.583 313.866 M 1871.406 354.882 C 1868.104 355.542, 1854.082 369.509, 1850.457 375.750 C 1849.418 377.538, 1848.283 379, 1847.934 379 C 1847.056 379, 1848.395 386.865, 1850.998 397 C 1852.798 404.005, 1853.127 407.698, 1852.870 418 C 1852.521 432, 1852.482 431.943, 1859.286 427.276 C 1865.919 422.725, 1874.674 412.441, 1878.424 404.796 C 1885.452 390.468, 1885.948 375.627, 1879.937 359.560 C 1877.763 353.751, 1877.576 353.648, 1871.406 354.882 M 1352.008 1093.530 C 1328.621 1096.177, 1285.454 1106.068, 1273.500 1111.518 C 1271.850 1112.270, 1269.600 1113.113, 1268.500 1113.390 C 1264.809 1114.322, 1276.295 1113.007, 1306.500 1109.039 C 1399.570 1096.812, 1402.325 1096.752, 1463.500 1105.605 C 1518.360 1113.544, 1523.433 1114.090, 1547.814 1114.694 C 1563.306 1115.078, 1571.476 1114.924, 1572.164 1114.236 C 1572.877 1113.523, 1570.137 1112.992, 1563.349 1112.528 C 1531.446 1110.348, 1515.320 1108.283, 1480.500 1101.917 C 1436.183 1093.816, 1426.576 1092.767, 1393.500 1092.420 C 1373.215 1092.207, 1360.746 1092.541, 1352.008 1093.530 M 1795 1094.681 C 1783.872 1095.827, 1767.139 1098.533, 1750 1101.958 C 1739.275 1104.102, 1728.512 1106.165, 1726.082 1106.544 C 1722.421 1107.115, 1721.973 1107.405, 1723.467 1108.241 C 1725.120 1109.167, 1737.334 1107.686, 1758.500 1103.994 C 1775.224 1101.077, 1783.204 1100.511, 1807 1100.557 C 1837.223 1100.616, 1850.102 1101.829, 1896.404 1108.984 C 1951.620 1117.516, 1966.842 1119.083, 1994.500 1119.085 C 2025.276 1119.087, 2040.897 1116.871, 2070.413 1108.316 C 2071.937 1107.874, 2072.039 1107.602, 2070.913 1106.975 C 2070.123 1106.536, 2061.743 1107.668, 2051.908 1109.543 C 2028.229 1114.059, 2019.967 1115, 2004.026 1114.999 C 1981.633 1114.998, 1958.644 1112.255, 1919.515 1104.916 C 1869.439 1095.524, 1855.483 1093.970, 1823 1094.170 C 1809.525 1094.252, 1796.925 1094.482, 1795 1094.681 M 1716.269 1109.693 C 1717.242 1109.947, 1718.592 1109.930, 1719.269 1109.656 C 1719.946 1109.382, 1719.150 1109.175, 1717.500 1109.195 C 1715.850 1109.215, 1715.296 1109.439, 1716.269 1109.693 M 1396.500 1129.071 C 1370.836 1130.742, 1342.142 1134.417, 1304 1140.919 C 1291.075 1143.122, 1273.975 1146.037, 1266 1147.396 C 1217.808 1155.606, 1190.032 1158.403, 1157 1158.371 C 1133.093 1158.348, 1127.372 1157.925, 1098.500 1154.042 C 1074.322 1150.790, 1072.183 1150.634, 1074.500 1152.298 C 1082.878 1158.314, 1132.696 1165, 1169.145 1165 C 1199.778 1165, 1225.781 1161.883, 1286 1150.991 C 1382.001 1133.627, 1416.025 1130.533, 1462 1134.988 C 1498.132 1138.489, 1508.293 1137.149, 1479.993 1132.615 C 1452.763 1128.252, 1426.314 1127.130, 1396.500 1129.071 M 1822 1133.601 C 1802.393 1134.705, 1772.156 1138.950, 1762.500 1141.955 C 1760.850 1142.468, 1758.375 1143.114, 1757 1143.389 C 1751.203 1144.551, 1774.938 1142.774, 1792 1140.770 C 1819.396 1137.551, 1852.745 1137.754, 1882.753 1141.321 C 1905.001 1143.966, 1936.606 1148.534, 1970.500 1154.003 C 2086.292 1172.687, 2126.485 1173.380, 2191.500 1157.814 C 2200.850 1155.575, 2209.998 1153.391, 2211.829 1152.959 C 2215.557 1152.081, 2216.657 1151.324, 2215.658 1150.324 C 2214.869 1149.536, 2183.897 1154.062, 2166.500 1157.509 C 2148.401 1161.095, 2111.279 1162.765, 2085.322 1161.162 C 2052.378 1159.127, 2030.968 1156.451, 1972 1146.997 C 1925.679 1139.570, 1914.559 1138.050, 1887.724 1135.474 C 1872.501 1134.012, 1834.118 1132.918, 1822 1133.601 M 1520 1161.102 C 1493.325 1163.004, 1470.070 1166.319, 1454 1170.512 C 1448.545 1171.935, 1448.599 1171.942, 1460.500 1171.459 C 1467.100 1171.190, 1481.950 1169.844, 1493.500 1168.467 C 1525.443 1164.657, 1556.154 1163.380, 1582.042 1164.785 C 1618.001 1166.737, 1632.802 1168.247, 1688 1175.600 C 1743.819 1183.035, 1755.728 1184.113, 1788.500 1184.700 C 1818.722 1185.241, 1823.902 1184.933, 1851.500 1180.949 C 1855.350 1180.393, 1862.325 1179.670, 1867 1179.341 C 1876.685 1178.661, 1880.058 1177.555, 1875.746 1176.472 C 1874.246 1176.096, 1871.103 1176.043, 1868.760 1176.354 C 1857.264 1177.882, 1824.893 1179.944, 1811.983 1179.970 C 1781.766 1180.032, 1755.727 1177.622, 1689 1168.586 C 1637.287 1161.583, 1614.816 1160.012, 1568.500 1160.162 C 1548.150 1160.228, 1526.325 1160.651, 1520 1161.102 M 2530 1274.060 C 2472.812 1278.354, 2425.681 1324.112, 2418.968 1381.858 C 2414.595 1419.469, 2434.412 1461.941, 2468.198 1487.370 C 2485.076 1500.073, 2500.091 1506.447, 2520.162 1509.427 C 2532.760 1511.297, 2632.387 1511.801, 2633.500 1510 C 2633.864 1509.411, 2632.757 1508.994, 2630.809 1508.985 C 2626.181 1508.965, 2622.952 1507.079, 2620.555 1502.998 C 2618.659 1499.771, 2618.474 1497.570, 2618.158 1474.562 C 2617.970 1460.846, 2618.125 1447.157, 2618.501 1444.142 C 2619.355 1437.308, 2622.843 1433.369, 2628.894 1432.401 C 2638.870 1430.806, 2631.020 1430, 2605.500 1430 C 2580.274 1430, 2571.524 1430.868, 2582.250 1432.307 C 2588.148 1433.098, 2591.622 1437.126, 2592.506 1444.201 C 2592.874 1447.145, 2593.023 1459.441, 2592.837 1471.527 C 2592.362 1502.489, 2592.692 1502.079, 2566.685 1504.086 C 2530.959 1506.842, 2500.065 1499.456, 2480.778 1483.547 C 2466.973 1472.160, 2453.235 1450.622, 2449.021 1433.759 C 2442.852 1409.075, 2444.240 1375.012, 2452.404 1350.690 C 2461.548 1323.453, 2480.896 1299.576, 2502.693 1288.632 C 2511.195 1284.362, 2524.421 1281.016, 2535.433 1280.347 C 2564.391 1278.589, 2591.498 1289.004, 2610.562 1309.213 C 2614.182 1313.050, 2617.412 1315.921, 2617.741 1315.593 C 2618.069 1315.264, 2616.429 1309.175, 2614.096 1302.061 L 2609.854 1289.126 2602.621 1286.115 C 2588.498 1280.235, 2568.657 1275.353, 2555.217 1274.451 C 2550.973 1274.165, 2545.700 1273.800, 2543.500 1273.639 C 2541.300 1273.478, 2535.225 1273.668, 2530 1274.060 M 2936.500 1274.084 C 2888.481 1277.916, 2850.571 1309.970, 2833.592 1361.098 C 2828.409 1376.705, 2826.923 1384.967, 2826.302 1401.643 C 2825.622 1419.927, 2826.835 1429.582, 2831.623 1444 C 2837.442 1461.524, 2845.831 1474.707, 2859.664 1488.068 C 2877.969 1505.748, 2896.638 1513.520, 2923.638 1514.700 C 2986.995 1517.471, 3034.880 1478.294, 3049.167 1412 C 3052.423 1396.889, 3052.857 1368.702, 3050.044 1355.077 C 3043.380 1322.804, 3024.034 1297.564, 2995.500 1283.914 C 2981.276 1277.110, 2972.951 1275.182, 2951 1273.608 C 2948.525 1273.431, 2942 1273.645, 2936.500 1274.084 M 1002.372 1277.651 C 1000.888 1281.203, 981.062 1334.540, 943.326 1436.500 C 917.009 1507.608, 917.917 1505.733, 908.647 1508.067 C 900.376 1510.150, 903.667 1511, 920 1511 C 928.800 1511, 935.990 1510.662, 935.978 1510.250 C 935.966 1509.838, 934.504 1508.825, 932.728 1508 C 927.409 1505.528, 928.056 1503.001, 947.188 1451.500 L 964.647 1404.500 997.074 1404.500 L 1029.500 1404.500 1047.207 1451.500 C 1058.411 1481.238, 1064.930 1499.894, 1064.957 1502.297 C 1064.993 1505.488, 1064.523 1506.364, 1062.006 1507.797 C 1060.360 1508.733, 1059.010 1509.838, 1059.006 1510.250 C 1059.003 1510.662, 1070.250 1511, 1084 1511 C 1107.326 1511, 1114.118 1510.215, 1105.750 1508.488 C 1096.472 1506.573, 1092.425 1500.632, 1083.127 1475.279 C 1079.944 1466.600, 1061.667 1417.763, 1042.511 1366.750 C 1005.023 1266.921, 1005.974 1269.031, 1002.372 1277.651 M 244.496 1278.007 C 244.153 1278.561, 244.464 1279.186, 245.187 1279.397 C 252.865 1281.636, 254.593 1282.723, 256.500 1286.519 C 258.456 1290.412, 258.506 1292.777, 258.773 1393.309 C 258.959 1463.428, 258.708 1497.369, 257.985 1500.055 C 256.594 1505.222, 253.834 1507.648, 248.421 1508.460 C 245.989 1508.824, 244 1509.545, 244 1510.061 C 244 1510.624, 255.218 1511, 272 1511 C 298.410 1511, 306 1510.189, 295.772 1508.461 C 293.446 1508.069, 290.591 1507.123, 289.426 1506.360 C 284.540 1503.158, 284.519 1502.926, 284.208 1447.250 L 283.916 1395 321.736 1395 C 362.251 1395, 364 1395.209, 364 1400.057 C 364 1401.126, 364.675 1402, 365.500 1402 C 366.738 1402, 367 1400.167, 367 1391.500 C 367 1383.060, 366.719 1381, 365.570 1381 C 364.783 1381, 363.995 1382.001, 363.820 1383.225 C 363.175 1387.712, 360.870 1387.970, 321.241 1387.985 L 283.982 1388 284.241 1336.750 L 284.500 1285.500 325 1285.500 C 360.885 1285.500, 365.925 1285.693, 369.228 1287.190 C 373.423 1289.091, 376.520 1293.455, 378.142 1299.750 C 378.766 1302.170, 379.832 1304, 380.619 1304 C 382.470 1304, 382.638 1280.038, 380.800 1278.200 C 379.235 1276.635, 245.460 1276.446, 244.496 1278.007 M 565 1278.371 C 565 1279.247, 566.715 1279.981, 569.750 1280.404 C 572.362 1280.768, 575.214 1281.614, 576.087 1282.283 C 580.618 1285.759, 580.483 1282.666, 580.803 1390 C 580.970 1445.825, 580.816 1493.939, 580.460 1496.920 C 579.623 1503.938, 576.276 1507.536, 569.663 1508.528 C 556.267 1510.537, 570.631 1510.993, 639.750 1510.756 L 714.500 1510.500 714.767 1483.567 C 714.922 1467.894, 714.644 1456.244, 714.103 1455.703 C 713.529 1455.129, 712.953 1457.019, 712.599 1460.636 C 710.680 1480.263, 706.628 1491.066, 699.143 1496.516 C 690.935 1502.493, 685.919 1503.231, 656.468 1502.791 C 632.242 1502.429, 630.110 1502.249, 624.688 1500.107 C 614.455 1496.063, 609.146 1488.798, 607.069 1475.994 C 605.669 1467.369, 605.609 1293.946, 607.004 1288.926 C 608.416 1283.842, 611.995 1280.868, 617.438 1280.254 C 620.384 1279.922, 622 1279.255, 622 1278.370 C 622 1277.242, 616.964 1277, 593.500 1277 C 570.023 1277, 565 1277.242, 565 1278.371 M 1305.001 1278.250 C 1305.002 1278.938, 1307.704 1280.294, 1311.005 1281.264 C 1317.683 1283.226, 1321.185 1286.916, 1325.532 1296.569 L 1327.815 1301.638 1314.979 1399.198 C 1307.919 1452.856, 1301.662 1498.541, 1301.075 1500.720 C 1299.759 1505.608, 1297.608 1507.625, 1292.750 1508.527 C 1284.763 1510.009, 1289.672 1511, 1305 1511 C 1320.063 1511, 1325.032 1510.045, 1318.001 1508.500 C 1313.673 1507.550, 1312 1504.536, 1312 1497.689 C 1312 1492.980, 1331.452 1336.271, 1333.529 1324.250 C 1334.181 1320.477, 1335.561 1320.022, 1336.565 1323.250 C 1337.934 1327.651, 1412.180 1509.514, 1412.926 1510.292 C 1413.343 1510.728, 1414.140 1510.503, 1414.697 1509.792 C 1415.253 1509.082, 1432.695 1466.425, 1453.456 1415 C 1474.217 1363.575, 1491.383 1321.313, 1491.602 1321.083 C 1491.821 1320.854, 1492.275 1320.941, 1492.610 1321.277 C 1493.169 1321.836, 1513.980 1480.295, 1515.437 1495.084 C 1516.189 1502.718, 1514.947 1505.823, 1510.267 1508 C 1508.494 1508.825, 1507.034 1509.838, 1507.022 1510.250 C 1506.989 1511.375, 1553.774 1511.174, 1554.471 1510.047 C 1554.795 1509.522, 1553.249 1508.605, 1551.034 1508.009 C 1545.479 1506.513, 1543.347 1503.825, 1541.601 1496.114 C 1539.851 1488.384, 1515.997 1304.990, 1516.006 1299.329 C 1516.020 1289.725, 1520.307 1282.887, 1527.628 1280.793 C 1535.898 1278.428, 1533.161 1277.512, 1516.974 1277.226 C 1505.536 1277.024, 1501.037 1277.287, 1499.885 1278.226 C 1499.026 1278.927, 1481.544 1321.125, 1461.038 1372 C 1440.531 1422.875, 1423.222 1465.070, 1422.573 1465.768 C 1421.652 1466.758, 1418.301 1459.316, 1407.267 1431.768 C 1363.619 1322.796, 1345.559 1278.421, 1344.588 1277.765 C 1342.557 1276.394, 1305 1276.854, 1305.001 1278.250 M 1744 1278.370 C 1744 1279.254, 1745.612 1279.922, 1748.541 1280.252 C 1754.202 1280.890, 1756.487 1282.905, 1757.897 1288.504 C 1759.396 1294.459, 1759.442 1495.869, 1757.945 1501.259 C 1756.694 1505.763, 1754.108 1507.610, 1747.760 1508.534 C 1736.964 1510.106, 1745.755 1511, 1772 1511 C 1798.278 1511, 1807.364 1510.063, 1796.104 1508.514 C 1790.885 1507.797, 1787.480 1505.393, 1785.939 1501.339 C 1784.403 1497.301, 1784.732 1289.095, 1786.279 1286 C 1787.746 1283.063, 1793.342 1280.004, 1797.250 1280.002 C 1799.027 1280.001, 1800 1279.469, 1800 1278.500 C 1800 1277.202, 1796.222 1277, 1772 1277 C 1748.959 1277, 1744 1277.243, 1744 1278.370 M 1991 1278.500 C 1991 1279.597, 1992.141 1280.001, 1995.250 1280.006 C 2010.499 1280.026, 2017.372 1289.056, 2019.982 1312.500 C 2021.239 1323.792, 2021.285 1486.779, 2020.034 1496.494 C 2018.967 1504.784, 2016.609 1507.486, 2009.519 1508.549 C 1999.718 1510.019, 2005.949 1511, 2025.083 1511 C 2040.703 1511, 2045.075 1510.722, 2044.755 1509.750 C 2044.529 1509.063, 2043.254 1508.367, 2041.922 1508.203 C 2037.262 1507.633, 2033.892 1505.693, 2032.203 1502.609 C 2030.641 1499.757, 2030.477 1492.039, 2030.224 1409.076 C 2030.073 1359.342, 2030.313 1318.287, 2030.758 1317.842 C 2031.203 1317.397, 2070.241 1361.089, 2117.510 1414.936 C 2164.778 1468.782, 2203.801 1512.623, 2204.226 1512.360 C 2204.652 1512.097, 2205.003 1462.521, 2205.006 1402.191 C 2205.009 1332.145, 2205.373 1291.199, 2206.011 1288.900 C 2207.301 1284.255, 2209.750 1282.112, 2215.415 1280.667 C 2224.458 1278.359, 2220.410 1277.500, 2200.500 1277.500 C 2180.974 1277.500, 2176.353 1278.394, 2185 1280.500 C 2190.040 1281.727, 2193.538 1284.939, 2194.371 1289.106 C 2195.440 1294.450, 2195.110 1462.204, 2194.031 1461.833 C 2193.498 1461.650, 2157.925 1421.450, 2114.979 1372.500 C 2072.033 1323.550, 2035.351 1282.037, 2033.463 1280.250 L 2030.029 1277 2010.515 1277 C 1993.835 1277, 1991 1277.218, 1991 1278.500 M 2914.075 1287.023 C 2893.065 1291.450, 2873.258 1304.626, 2859.240 1323.500 C 2832.906 1358.958, 2837.992 1418.904, 2870.840 1460.213 C 2892.638 1487.626, 2920.003 1503, 2947 1503 C 2972.321 1503, 3001.726 1487.750, 3018.189 1466.080 C 3024.925 1457.214, 3033.364 1439.503, 3036.095 1428.500 C 3040.295 1411.582, 3038.803 1387.612, 3032.348 1368.290 C 3020.213 1331.969, 2986.234 1299.636, 2949 1288.982 C 2940.513 1286.553, 2921.394 1285.481, 2914.075 1287.023 M 996.372 1320.142 C 994.620 1322.403, 967.997 1395.186, 968.578 1396.126 C 969.172 1397.088, 1026 1397.363, 1026 1396.405 C 1026 1395.876, 1000.088 1325.300, 998.184 1320.642 C 997.563 1319.123, 997.232 1319.032, 996.372 1320.142 M 1563 1628.402 C 1563 1629.251, 1564.009 1632.024, 1565.243 1634.563 C 1567.261 1638.716, 1567.541 1638.944, 1568.038 1636.840 C 1568.589 1634.504, 1568.618 1634.500, 1585.045 1634.500 L 1601.500 1634.500 1601.793 1681 C 1602.131 1734.809, 1602.111 1735.091, 1597.699 1737.918 L 1594.500 1739.966 1608.500 1739.847 C 1616.200 1739.781, 1621.534 1739.539, 1620.354 1739.308 C 1619.174 1739.077, 1617.374 1737.966, 1616.354 1736.840 C 1614.600 1734.902, 1614.500 1732.076, 1614.500 1684.646 L 1614.500 1634.500 1630.476 1634.223 C 1645.850 1633.957, 1646.513 1634.028, 1648.084 1636.112 C 1649.702 1638.256, 1649.732 1638.235, 1651.213 1633.889 L 1652.709 1629.500 1609.466 1629.790 C 1570.787 1630.049, 1566.052 1629.909, 1564.611 1628.468 C 1563.187 1627.044, 1563 1627.036, 1563 1628.402 M 1299 1629.424 C 1280.974 1632.665, 1266.570 1642.414, 1257.517 1657.500 C 1241.155 1684.765, 1250.679 1722.042, 1277.178 1734.462 C 1292.470 1741.629, 1316.828 1743.205, 1339.478 1738.492 C 1346.065 1737.121, 1351.566 1736, 1351.701 1736 C 1352.272 1736, 1358.910 1725.576, 1358.561 1725.227 C 1358.350 1725.017, 1355.847 1726.448, 1352.998 1728.407 C 1341.913 1736.032, 1319.315 1740.076, 1304.719 1737.045 C 1286.179 1733.197, 1271.562 1719.389, 1263.914 1698.500 C 1260.892 1690.246, 1260.614 1688.505, 1260.559 1677.500 C 1260.503 1666.042, 1260.643 1665.198, 1263.665 1658.820 C 1270.871 1643.610, 1284.328 1634.252, 1302 1632.163 C 1316.466 1630.453, 1329.183 1633.616, 1340.072 1641.632 C 1343.439 1644.111, 1346.407 1645.927, 1346.666 1645.667 C 1347.993 1644.340, 1344.370 1636.587, 1341.649 1634.933 C 1333.177 1629.780, 1312.137 1627.063, 1299 1629.424 M 1841.500 1629.407 C 1818.956 1633.778, 1801.659 1648.491, 1794.953 1669 C 1791.535 1679.450, 1791.481 1695.424, 1794.830 1705.190 C 1799.333 1718.324, 1808.593 1729.297, 1819.548 1734.479 C 1829.056 1738.977, 1835.575 1740.214, 1852.509 1740.733 C 1868.130 1741.211, 1875.177 1740.439, 1892.666 1736.334 C 1894.692 1735.858, 1902.922 1725, 1901.257 1725 C 1900.837 1725, 1898.306 1726.556, 1895.631 1728.457 C 1884.606 1736.296, 1862.360 1740.140, 1846.799 1736.895 C 1827.800 1732.933, 1813.065 1718.208, 1805.876 1696 C 1795.365 1663.527, 1812.288 1635.753, 1844.780 1632.149 C 1859.823 1630.481, 1871.910 1633.578, 1883.030 1641.951 C 1886.588 1644.630, 1889.658 1646.666, 1889.852 1646.476 C 1890.045 1646.285, 1889.432 1643.806, 1888.489 1640.967 C 1887.055 1636.650, 1886.178 1635.552, 1883.137 1634.271 C 1870.561 1628.973, 1853.822 1627.018, 1841.500 1629.407 M 1142.703 1636.227 C 1127.426 1675.961, 1104.230 1732.681, 1102.132 1735.435 C 1100.684 1737.335, 1098.825 1739.087, 1098 1739.328 C 1097.175 1739.570, 1099.447 1739.820, 1103.049 1739.884 L 1109.598 1740 1109.249 1736.750 C 1108.999 1734.428, 1111.413 1727.215, 1117.699 1711.500 L 1126.500 1689.500 1142.107 1689.225 C 1153.838 1689.019, 1157.960 1689.267, 1158.703 1690.225 C 1159.246 1690.926, 1163.579 1701.274, 1168.332 1713.220 C 1175.553 1731.368, 1176.815 1735.355, 1176.012 1737.470 L 1175.050 1740 1186.775 1739.921 C 1193.224 1739.878, 1197.837 1739.582, 1197.027 1739.263 C 1191.864 1737.235, 1189.912 1733.188, 1169.166 1681.500 C 1156.833 1650.773, 1147.722 1629.388, 1146.897 1629.227 C 1145.989 1629.049, 1144.522 1631.497, 1142.703 1636.227 M 967.234 1630.668 C 966.435 1630.989, 967.145 1631.975, 969.159 1633.339 C 971.333 1634.811, 976.912 1642.997, 986.649 1659 L 1000.947 1682.500 1000.973 1708.115 C 1000.999 1732.322, 1000.889 1733.871, 998.980 1736.298 C 997.869 1737.711, 995.957 1739.060, 994.730 1739.297 C 993.504 1739.534, 998.800 1739.753, 1006.500 1739.785 C 1014.200 1739.816, 1019.846 1739.584, 1019.046 1739.270 C 1018.246 1738.955, 1016.671 1737.840, 1015.546 1736.793 C 1013.596 1734.978, 1013.485 1733.590, 1013.181 1707.156 L 1012.862 1679.423 1027.304 1657.461 C 1035.771 1644.586, 1043.023 1634.622, 1044.833 1633.377 C 1048.726 1630.699, 1048.013 1630, 1041.392 1630 C 1036.343 1630, 1033.828 1631.158, 1035.984 1632.490 C 1036.543 1632.835, 1037 1633.510, 1037 1633.988 C 1037 1635.642, 1011.726 1673, 1010.615 1672.989 C 1010.002 1672.984, 1004.350 1664.400, 998.056 1653.915 C 988.405 1637.837, 986.790 1634.566, 987.747 1633.033 C 988.372 1632.034, 988.609 1630.942, 988.274 1630.608 C 987.549 1629.883, 969.053 1629.935, 967.234 1630.668 M 1414.161 1630.692 C 1413.225 1631.065, 1413.507 1631.569, 1415.098 1632.363 C 1416.365 1632.996, 1417.747 1634.940, 1418.215 1636.749 C 1418.678 1638.535, 1418.931 1661.412, 1418.778 1687.586 L 1418.500 1735.174 1415.694 1737.587 L 1412.888 1740 1425.694 1739.921 C 1432.737 1739.878, 1437.846 1739.584, 1437.046 1739.270 C 1436.246 1738.955, 1434.671 1737.840, 1433.546 1736.793 C 1431.591 1734.973, 1431.500 1733.785, 1431.500 1710.194 L 1431.500 1685.500 1461.250 1685.235 L 1491 1684.970 1491 1709.832 C 1491 1736.166, 1490.787 1737.421, 1486 1739.265 C 1485.175 1739.582, 1490.203 1739.878, 1497.173 1739.921 L 1509.846 1740 1506.923 1737.077 L 1504 1734.154 1504 1684.648 C 1504 1640.977, 1504.185 1634.958, 1505.571 1633.571 C 1506.436 1632.707, 1507.673 1631.993, 1508.321 1631.985 C 1509.012 1631.976, 1508.879 1631.568, 1508 1631 C 1507.175 1630.467, 1502.450 1630.031, 1497.500 1630.031 C 1492.550 1630.031, 1487.825 1630.467, 1487 1631 C 1485.712 1631.833, 1485.742 1631.972, 1487.215 1631.985 C 1490.515 1632.014, 1491 1635.470, 1491 1658.934 L 1491 1682 1461.607 1682 C 1435.727 1682, 1432.141 1681.811, 1431.607 1680.418 C 1430.793 1678.298, 1430.828 1641.111, 1431.647 1637.015 C 1432.112 1634.690, 1433.127 1633.430, 1435.255 1632.535 C 1438.185 1631.303, 1438.191 1631.283, 1435.858 1630.659 C 1433.042 1629.905, 1416.069 1629.931, 1414.161 1630.692 M 1953.155 1630.883 C 1952.154 1631.517, 1952.444 1631.895, 1954.285 1632.357 C 1955.701 1632.712, 1957.020 1633.946, 1957.367 1635.239 C 1957.700 1636.483, 1957.979 1659.112, 1957.986 1685.527 C 1958.001 1737.487, 1958.069 1736.809, 1952.643 1739.015 C 1951.381 1739.529, 1965.704 1739.807, 1987.500 1739.693 L 2024.500 1739.500 2024.786 1729.750 C 2025.095 1719.224, 2024.136 1717.302, 2022.196 1724.559 C 2019.679 1733.967, 2013.768 1736.415, 1995 1735.821 C 1980.327 1735.356, 1975.600 1733.695, 1972.746 1728 C 1971.139 1724.794, 1971.013 1720.685, 1971.246 1679.029 L 1971.500 1633.559 1973.808 1632.408 C 1975.756 1631.437, 1975.860 1631.160, 1974.476 1630.629 C 1972.033 1629.692, 1954.709 1629.898, 1953.155 1630.883 M 2085 1631 C 2084.175 1631.533, 2083.950 1631.983, 2084.500 1632 C 2088.460 1632.121, 2088.481 1632.328, 2089 1675.712 L 2089.500 1717.500 2092.164 1722.500 C 2095.588 1728.927, 2101.193 1734.300, 2107.500 1737.201 C 2111.811 1739.183, 2114.084 1739.496, 2124 1739.475 C 2137.734 1739.444, 2143.472 1737.590, 2153.636 1729.897 C 2157.194 1727.204, 2160.512 1725, 2161.009 1725 C 2161.506 1725, 2162.045 1728.263, 2162.206 1732.250 L 2162.500 1739.500 2172 1739.758 C 2180.238 1739.982, 2181.171 1739.846, 2179.020 1738.738 C 2174.068 1736.188, 2174.030 1735.771, 2174.028 1685 C 2174.028 1658.875, 2174.300 1636.483, 2174.633 1635.239 C 2174.980 1633.946, 2176.299 1632.712, 2177.715 1632.357 C 2182.402 1631.180, 2177.796 1630.031, 2168.332 1630.015 C 2157.545 1629.997, 2154.698 1630.667, 2158.179 1632.402 C 2161.608 1634.112, 2161.879 1637.528, 2161.942 1679.934 L 2162 1718.368 2157.162 1723.031 C 2145.773 1734.008, 2129.945 1737.201, 2117.440 1731.045 C 2110.284 1727.522, 2106.931 1723.800, 2103.717 1715.809 C 2101.702 1710.800, 2101.561 1708.466, 2101.213 1674.500 C 2100.827 1636.741, 2101.144 1633.298, 2105.097 1632.264 C 2106.674 1631.852, 2106.850 1631.520, 2105.835 1630.877 C 2103.990 1629.707, 2086.843 1629.809, 2085 1631 M 2242.155 1630.883 C 2241.159 1631.514, 2241.472 1631.902, 2243.361 1632.376 C 2245.248 1632.849, 2246.067 1633.861, 2246.507 1636.258 C 2246.834 1638.041, 2246.966 1661.027, 2246.801 1687.337 L 2246.500 1735.175 2243.694 1737.587 L 2240.888 1740 2259.694 1739.973 C 2293.616 1739.924, 2301.104 1738.369, 2308.385 1729.864 C 2313.814 1723.521, 2316.350 1716.069, 2316.335 1706.500 C 2316.313 1691.958, 2310.153 1683.665, 2295.627 1678.619 C 2294.004 1678.055, 2294.355 1677.440, 2298.262 1674.001 C 2303.661 1669.248, 2306.191 1663.494, 2306.196 1655.957 C 2306.205 1642.949, 2297.281 1633.372, 2283 1631.065 C 2275.230 1629.810, 2244.067 1629.671, 2242.155 1630.883 M 2259 1656.500 L 2259 1680 2269.532 1680 C 2284.972 1680, 2290.167 1676.913, 2293.475 1665.771 C 2299.216 1646.439, 2288.079 1633, 2266.318 1633 L 2259 1633 2259 1656.500 M 1135 1667.667 C 1131.425 1676.805, 1128.350 1684.669, 1128.167 1685.141 C 1127.983 1685.613, 1134.433 1686, 1142.500 1686 C 1150.567 1686, 1157.017 1685.625, 1156.833 1685.166 C 1156.650 1684.707, 1153.575 1676.833, 1150 1667.668 C 1146.425 1658.503, 1143.050 1651.015, 1142.500 1651.028 C 1141.950 1651.040, 1138.575 1658.528, 1135 1667.667 M 2259.366 1684.489 C 2259.051 1685.308, 2258.953 1695.176, 2259.147 1706.417 C 2259.537 1728.973, 2259.986 1730.636, 2266.590 1733.968 C 2269.930 1735.654, 2282.928 1736.538, 2289.617 1735.535 C 2300.738 1733.867, 2306.661 1721.889, 2304.118 1706.207 C 2302.097 1693.743, 2296.156 1686.057, 2287.030 1684.100 C 2278.993 1682.376, 2260.074 1682.643, 2259.366 1684.489 M 2420.250 1689.750 C 2454.762 1689.896, 2511.238 1689.896, 2545.750 1689.750 C 2580.262 1689.604, 2552.025 1689.485, 2483 1689.485 C 2413.975 1689.485, 2385.738 1689.604, 2420.250 1689.750 M 886.130 2036.898 C 885.006 2037.610, 885.059 2037.934, 886.424 2038.697 C 888.946 2040.109, 888.946 2080.891, 886.424 2082.303 C 883.965 2083.678, 886.493 2084.966, 891.691 2084.985 C 896.011 2085, 898.327 2083.446, 895.563 2082.386 C 894.213 2081.868, 894 2078.872, 894 2060.393 L 894 2039 898.535 2039 C 904.013 2039, 907.482 2041.075, 908.925 2045.215 C 911.266 2051.931, 909.174 2057.194, 903.164 2059.705 C 897.574 2062.041, 900.727 2063.652, 906.542 2061.431 C 918.651 2056.806, 917.990 2040.249, 905.571 2037.122 C 900.314 2035.798, 888.089 2035.658, 886.130 2036.898 M 960.500 2036.901 C 958.813 2037.626, 959.126 2037.872, 962.500 2038.468 C 976.084 2040.871, 985.404 2051.339, 985.231 2063.999 C 985.134 2071.114, 986.028 2070.553, 987.963 2062.284 C 990.124 2053.047, 985.053 2042.678, 976.533 2038.914 C 971.682 2036.770, 963.263 2035.713, 960.500 2036.901 M 1010.568 2036.891 C 1010.265 2037.380, 1011.062 2038.466, 1012.339 2039.303 C 1013.616 2040.139, 1015.447 2043.001, 1016.408 2045.662 C 1017.369 2048.323, 1018.548 2051.400, 1019.027 2052.500 C 1019.507 2053.600, 1021.763 2059.450, 1024.041 2065.500 C 1029.588 2080.230, 1031.056 2083.366, 1031.928 2082.354 C 1033.156 2080.929, 1037.052 2070.719, 1036.557 2070.224 C 1036.303 2069.970, 1036.749 2069.108, 1037.548 2068.310 C 1039.139 2066.718, 1039.509 2064, 1038.134 2064 C 1037.658 2064, 1036.386 2066.321, 1035.308 2069.159 L 1033.348 2074.317 1029.080 2063.409 C 1026.733 2057.409, 1024.408 2051.600, 1023.913 2050.500 C 1021.202 2044.470, 1020.043 2039.653, 1021.020 2038.476 C 1021.759 2037.586, 1021.595 2037.059, 1020.444 2036.617 C 1018.022 2035.687, 1011.194 2035.877, 1010.568 2036.891 M 1038.570 2036.887 C 1038.269 2037.374, 1038.718 2038.351, 1039.569 2039.057 C 1042.179 2041.223, 1044.033 2046.784, 1043.027 2049.430 C 1042.033 2052.044, 1042.543 2053.113, 1044.436 2052.386 C 1045.260 2052.070, 1047.619 2057.125, 1051.472 2067.467 C 1057.772 2084.379, 1058.450 2084.996, 1061.360 2076.456 C 1062.878 2072.002, 1062.006 2069.441, 1060.092 2072.729 C 1059.398 2073.921, 1059.051 2074.051, 1059.030 2073.125 C 1059.014 2072.369, 1056.236 2064.761, 1052.857 2056.219 C 1047.991 2043.916, 1046.939 2040.327, 1047.798 2038.952 C 1048.394 2037.997, 1048.609 2036.942, 1048.274 2036.608 C 1047.327 2035.660, 1039.183 2035.894, 1038.570 2036.887 M 1072.639 2036.775 C 1072.376 2037.201, 1072.494 2039.113, 1072.901 2041.025 C 1073.575 2044.184, 1073.710 2044.296, 1074.389 2042.249 C 1074.800 2041.011, 1076.018 2039.526, 1077.096 2038.949 C 1078.174 2038.372, 1078.792 2037.472, 1078.469 2036.950 C 1077.765 2035.811, 1073.317 2035.677, 1072.639 2036.775 M 1102.587 2036.859 C 1102.276 2037.362, 1102.692 2038.329, 1103.511 2039.009 C 1104.740 2040.029, 1105 2043.782, 1105 2060.500 C 1105 2077.218, 1104.740 2080.971, 1103.511 2081.991 C 1100.606 2084.402, 1103.283 2085, 1116.977 2085 C 1132.908 2085, 1134.011 2084.750, 1133.970 2081.143 C 1133.943 2078.865, 1133.798 2078.742, 1132.920 2080.250 C 1132.058 2081.730, 1130.375 2082, 1122.009 2082 C 1116.569 2082, 1111.896 2081.640, 1111.624 2081.200 C 1111.352 2080.760, 1111.037 2076.147, 1110.924 2070.950 L 1110.718 2061.500 1119.609 2061.362 C 1127.307 2061.243, 1128.500 2060.993, 1128.500 2059.500 C 1128.500 2058.008, 1127.310 2057.757, 1119.661 2057.638 L 1110.822 2057.500 1110.825 2048.500 L 1110.828 2039.500 1120.940 2039.500 C 1129.391 2039.500, 1131.006 2039.253, 1130.764 2038 C 1130.527 2036.771, 1128.011 2036.450, 1116.814 2036.222 C 1109.300 2036.070, 1102.898 2036.356, 1102.587 2036.859 M 1158.028 2036.962 C 1156.767 2037.759, 1156.803 2037.987, 1158.278 2038.553 C 1160.911 2039.563, 1160.911 2081.437, 1158.278 2082.447 C 1155.546 2083.495, 1158.685 2084.966, 1163.691 2084.985 C 1168.011 2085, 1170.327 2083.446, 1167.563 2082.386 C 1166.299 2081.901, 1166 2079.989, 1166 2072.393 L 1166 2063 1170.266 2063 C 1174.254 2063, 1174.735 2063.310, 1177.653 2067.767 C 1184.739 2078.591, 1188.622 2082.634, 1193.148 2083.902 C 1195.877 2084.666, 1198.379 2084.795, 1199.854 2084.250 C 1202.060 2083.434, 1201.950 2083.302, 1198.118 2082.153 C 1194.149 2080.964, 1189.654 2076.204, 1181.308 2064.351 L 1179.117 2061.239 1181.653 2058.869 C 1185.243 2055.516, 1187 2051.706, 1187 2047.272 C 1187 2039.250, 1181.537 2035.992, 1168.128 2036.015 C 1163.383 2036.024, 1158.838 2036.450, 1158.028 2036.962 M 1230.130 2036.898 C 1228.998 2037.616, 1229.036 2037.921, 1230.348 2038.655 C 1231.713 2039.419, 1231.950 2042.458, 1232.041 2060.358 C 1232.137 2079.411, 1231.992 2081.286, 1230.324 2082.505 C 1228.611 2083.757, 1228.652 2083.874, 1231.001 2084.456 C 1232.376 2084.797, 1239.569 2084.946, 1246.988 2084.788 C 1258.025 2084.552, 1260.528 2084.228, 1260.764 2083 C 1261.009 2081.725, 1259.451 2081.552, 1250.394 2081.845 C 1242.260 2082.108, 1239.533 2081.871, 1238.883 2080.845 C 1238.414 2080.105, 1238.024 2075.310, 1238.015 2070.190 L 1238 2060.880 1247.250 2061.083 C 1255.540 2061.265, 1256.500 2061.101, 1256.500 2059.500 C 1256.500 2057.899, 1255.540 2057.735, 1247.250 2057.917 L 1238 2058.120 1238 2048.560 L 1238 2039 1246.800 2039 C 1251.804 2039, 1256.069 2039.469, 1256.687 2040.087 C 1258.058 2041.458, 1259.436 2039.579, 1258.620 2037.452 C 1258.171 2036.282, 1255.480 2036.003, 1244.781 2036.015 C 1237.477 2036.024, 1230.884 2036.421, 1230.130 2036.898 M 1284.531 2036.950 C 1284.208 2037.472, 1284.857 2038.388, 1285.972 2038.985 C 1287.908 2040.021, 1288 2041, 1288 2060.500 C 1288 2080, 1287.908 2080.979, 1285.972 2082.015 C 1281.936 2084.175, 1285.360 2085, 1298.309 2084.988 C 1319.171 2084.969, 1326.543 2081.937, 1332.250 2071.028 C 1335.431 2064.947, 1336.004 2055.646, 1333.557 2049.790 C 1331.882 2045.781, 1325.083 2039.286, 1321.775 2038.533 C 1320.524 2038.249, 1317.475 2037.574, 1315 2037.033 C 1309.215 2035.768, 1285.302 2035.703, 1284.531 2036.950 M 1380.570 2036.887 C 1380.269 2037.374, 1380.692 2038.329, 1381.511 2039.009 C 1382.740 2040.029, 1383 2043.782, 1383 2060.500 C 1383 2077.218, 1382.740 2080.971, 1381.511 2081.991 C 1380.692 2082.671, 1380.269 2083.626, 1380.570 2084.113 C 1381.395 2085.448, 1400.990 2085.031, 1405 2083.592 C 1409.926 2081.826, 1413 2076.911, 1413 2070.802 C 1413 2066.123, 1410.827 2060, 1409.165 2060 C 1408.735 2060, 1407.546 2059.388, 1406.523 2058.640 C 1404.723 2057.324, 1404.732 2057.185, 1406.832 2054.236 C 1411.418 2047.795, 1408.222 2039.582, 1400.193 2037.176 C 1395.608 2035.802, 1381.370 2035.592, 1380.570 2036.887 M 1436.687 2036.646 C 1436.281 2037.052, 1437.085 2038.310, 1438.474 2039.442 C 1439.862 2040.574, 1443.474 2045.712, 1446.499 2050.859 L 1452 2060.218 1452 2070.119 C 1452 2078.695, 1451.739 2080.243, 1450.051 2081.688 C 1447.221 2084.112, 1448.414 2085, 1454.500 2085 C 1460.397 2085, 1462.243 2083.736, 1458.932 2081.964 C 1456.901 2080.877, 1456.823 2080.241, 1457.154 2067.497 C 1457.397 2058.127, 1457.183 2054.431, 1456.432 2055.055 C 1455.181 2056.095, 1446.508 2041.661, 1446.486 2038.500 C 1446.474 2036.841, 1445.700 2036.450, 1441.948 2036.204 C 1439.461 2036.041, 1437.093 2036.240, 1436.687 2036.646 M 1466.889 2036.750 C 1466.828 2037.162, 1466.861 2038.513, 1466.961 2039.750 C 1467.061 2040.987, 1466.651 2042, 1466.050 2042 C 1465.449 2042, 1464.404 2043.231, 1463.729 2044.736 C 1463.053 2046.241, 1461.713 2048.266, 1460.750 2049.236 C 1459.787 2050.206, 1459.036 2051.787, 1459.079 2052.750 C 1459.135 2053.987, 1459.318 2054.097, 1459.704 2053.125 C 1460.004 2052.369, 1461.094 2050.906, 1462.125 2049.875 C 1463.156 2048.844, 1464 2047.325, 1464 2046.500 C 1464 2045.675, 1464.438 2045, 1464.974 2045 C 1465.510 2045, 1466.617 2043.707, 1467.434 2042.127 C 1468.251 2040.547, 1469.883 2039.002, 1471.061 2038.694 C 1472.243 2038.385, 1472.906 2037.657, 1472.542 2037.067 C 1471.796 2035.862, 1467.060 2035.596, 1466.889 2036.750 M 1516.499 2037.002 C 1516.158 2037.553, 1517.091 2038.464, 1518.572 2039.027 C 1521.040 2039.966, 1521.223 2040.404, 1520.760 2044.276 C 1520.483 2046.599, 1520.603 2049.625, 1521.028 2051 L 1521.801 2053.500 1521.916 2051 C 1522.128 2046.390, 1523.655 2045.429, 1524.887 2049.130 C 1527.033 2055.579, 1538.934 2082.478, 1539.764 2082.755 C 1540.665 2083.055, 1547.270 2068.937, 1546.561 2068.227 C 1545.767 2067.433, 1543.860 2069.193, 1544.260 2070.351 C 1544.478 2070.983, 1543.900 2072.221, 1542.976 2073.102 C 1541.415 2074.590, 1541.025 2074.055, 1537.501 2065.602 C 1535.414 2060.596, 1532.728 2054.250, 1531.531 2051.500 C 1530.334 2048.750, 1528.750 2044.925, 1528.012 2043 C 1527.274 2041.075, 1526 2038.713, 1525.180 2037.750 C 1523.567 2035.855, 1517.529 2035.335, 1516.499 2037.002 M 1556.973 2040.250 C 1554.599 2045.479, 1554.410 2048.440, 1556.500 2047.638 C 1557.653 2047.196, 1558 2047.854, 1558 2050.482 C 1558 2052.363, 1558.411 2056.061, 1558.913 2058.701 C 1561.441 2071.979, 1562.295 2080.940, 1561.164 2082.303 C 1559.526 2084.276, 1560.720 2085, 1565.608 2085 C 1570.518 2085, 1571.648 2083.999, 1569.152 2081.862 C 1567.910 2080.799, 1567.046 2077.503, 1566.155 2070.434 C 1565.467 2064.970, 1564.498 2057.800, 1564.003 2054.500 C 1561.844 2040.108, 1561.843 2040.154, 1564.022 2038.988 C 1566.719 2037.545, 1565.617 2036, 1561.892 2036 C 1559.344 2036, 1558.617 2036.628, 1556.973 2040.250 M 1658.531 2036.950 C 1658.208 2037.472, 1658.857 2038.388, 1659.972 2038.985 C 1661.908 2040.021, 1662 2041, 1662 2060.500 C 1662 2080, 1661.908 2080.979, 1659.972 2082.015 C 1656.751 2083.739, 1658.664 2085, 1664.500 2085 C 1670.586 2085, 1671.779 2084.112, 1668.949 2081.688 C 1667.300 2080.277, 1667 2078.708, 1667 2071.510 L 1667 2063 1671.463 2063 C 1675.825 2063, 1676.019 2063.141, 1680.101 2069.250 C 1688.970 2082.527, 1696.401 2087.562, 1701.948 2084.053 C 1703.068 2083.345, 1702.729 2082.980, 1700.448 2082.443 C 1696.538 2081.523, 1691.024 2076.130, 1685.357 2067.683 L 1680.732 2060.789 1683.280 2058.645 C 1691.765 2051.505, 1690.086 2039.785, 1680.186 2037.035 C 1675.539 2035.744, 1659.315 2035.681, 1658.531 2036.950 M 1732.028 2036.962 C 1730.767 2037.759, 1730.803 2037.987, 1732.278 2038.553 C 1734.911 2039.563, 1734.911 2081.437, 1732.278 2082.447 C 1729.546 2083.495, 1732.685 2084.966, 1737.691 2084.985 C 1742.011 2085, 1744.327 2083.446, 1741.563 2082.386 C 1740.213 2081.868, 1740 2078.882, 1740 2060.500 C 1740 2042.118, 1740.213 2039.132, 1741.563 2038.614 C 1742.423 2038.284, 1742.847 2037.561, 1742.504 2037.007 C 1741.724 2035.745, 1734.005 2035.711, 1732.028 2036.962 M 1766.499 2037.002 C 1766.158 2037.553, 1766.993 2038.427, 1768.354 2038.945 C 1769.715 2039.462, 1771.131 2040.837, 1771.500 2041.999 C 1772.010 2043.605, 1772.294 2064.745, 1772.020 2080.633 C 1772.009 2081.257, 1771.055 2082.014, 1769.899 2082.316 C 1766.787 2083.130, 1768.599 2085, 1772.500 2085 C 1776.405 2085, 1777.629 2083.767, 1775.489 2081.991 C 1773.335 2080.203, 1773.266 2046, 1775.417 2046 C 1776.196 2046, 1776.983 2046.407, 1777.167 2046.905 C 1777.721 2048.407, 1810.335 2083, 1811.199 2083 C 1811.639 2083, 1812 2073.380, 1812 2061.622 C 1812 2043.910, 1812.255 2040.033, 1813.489 2039.009 C 1815.629 2037.233, 1814.405 2036, 1810.500 2036 C 1806.599 2036, 1804.787 2037.870, 1807.899 2038.684 C 1809.055 2038.986, 1810.006 2039.743, 1810.012 2040.367 C 1810.253 2062.610, 1810.186 2073.147, 1809.802 2073.532 C 1809.538 2073.796, 1801.351 2065.459, 1791.610 2055.006 C 1775.344 2037.552, 1773.622 2036, 1770.508 2036 C 1768.644 2036, 1766.839 2036.451, 1766.499 2037.002 M 1926.499 2037.002 C 1926.158 2037.553, 1927.091 2038.464, 1928.572 2039.027 C 1931.040 2039.966, 1931.223 2040.404, 1930.760 2044.276 C 1930.483 2046.599, 1930.603 2049.625, 1931.028 2051 L 1931.801 2053.500 1931.916 2051 C 1932.128 2046.390, 1933.655 2045.429, 1934.887 2049.130 C 1937.033 2055.579, 1948.934 2082.478, 1949.764 2082.755 C 1950.665 2083.055, 1957.270 2068.937, 1956.561 2068.227 C 1955.767 2067.433, 1953.860 2069.193, 1954.260 2070.351 C 1954.478 2070.983, 1953.900 2072.221, 1952.976 2073.102 C 1951.415 2074.590, 1951.025 2074.055, 1947.501 2065.602 C 1945.414 2060.596, 1942.728 2054.250, 1941.531 2051.500 C 1940.334 2048.750, 1938.750 2044.925, 1938.012 2043 C 1937.274 2041.075, 1936 2038.713, 1935.180 2037.750 C 1933.567 2035.855, 1927.529 2035.335, 1926.499 2037.002 M 1966.973 2040.250 C 1964.599 2045.479, 1964.410 2048.440, 1966.500 2047.638 C 1967.653 2047.196, 1968 2047.854, 1968 2050.482 C 1968 2052.363, 1968.411 2056.061, 1968.913 2058.701 C 1971.441 2071.979, 1972.295 2080.940, 1971.164 2082.303 C 1969.526 2084.276, 1970.720 2085, 1975.608 2085 C 1980.518 2085, 1981.648 2083.999, 1979.152 2081.862 C 1977.910 2080.799, 1977.046 2077.503, 1976.155 2070.434 C 1975.467 2064.970, 1974.498 2057.800, 1974.003 2054.500 C 1971.844 2040.108, 1971.843 2040.154, 1974.022 2038.988 C 1976.719 2037.545, 1975.617 2036, 1971.892 2036 C 1969.344 2036, 1968.617 2036.628, 1966.973 2040.250 M 2068.531 2036.950 C 2068.208 2037.472, 2068.857 2038.388, 2069.972 2038.985 C 2071.908 2040.021, 2072 2041, 2072 2060.500 C 2072 2080, 2071.908 2080.979, 2069.972 2082.015 C 2066.751 2083.739, 2068.664 2085, 2074.500 2085 C 2080.586 2085, 2081.779 2084.112, 2078.949 2081.688 C 2077.300 2080.277, 2077 2078.708, 2077 2071.510 L 2077 2063 2081.463 2063 C 2085.825 2063, 2086.019 2063.141, 2090.101 2069.250 C 2098.970 2082.527, 2106.401 2087.562, 2111.948 2084.053 C 2113.068 2083.345, 2112.729 2082.980, 2110.448 2082.443 C 2106.538 2081.523, 2101.024 2076.130, 2095.357 2067.683 L 2090.732 2060.789 2093.280 2058.645 C 2101.765 2051.505, 2100.086 2039.785, 2090.186 2037.035 C 2085.539 2035.744, 2069.315 2035.681, 2068.531 2036.950 M 2142.130 2036.898 C 2141.009 2037.609, 2141.068 2037.939, 2142.453 2038.714 C 2145.035 2040.159, 2144.818 2080.681, 2142.219 2082.582 C 2140.664 2083.719, 2140.757 2083.901, 2143.210 2084.516 C 2147.723 2085.649, 2164.232 2084.603, 2167.410 2082.983 C 2171.889 2080.700, 2174.275 2076.728, 2174.773 2070.728 C 2175.186 2065.742, 2174.985 2065.128, 2171.858 2061.839 C 2170.011 2059.895, 2167.886 2058.107, 2167.136 2057.864 C 2166.105 2057.531, 2166.409 2056.486, 2168.386 2053.573 C 2171.407 2049.122, 2171.607 2047.074, 2169.434 2042.872 C 2167.073 2038.306, 2161.140 2036.045, 2151.500 2036.037 C 2147.100 2036.034, 2142.884 2036.421, 2142.130 2036.898 M 2200.130 2036.898 C 2198.998 2037.616, 2199.036 2037.921, 2200.348 2038.655 C 2201.713 2039.419, 2201.950 2042.458, 2202.041 2060.358 C 2202.137 2079.411, 2201.992 2081.286, 2200.324 2082.505 C 2198.611 2083.757, 2198.652 2083.874, 2201.001 2084.456 C 2202.376 2084.797, 2209.569 2084.946, 2216.988 2084.788 C 2228.025 2084.552, 2230.528 2084.228, 2230.764 2083 C 2231.009 2081.725, 2229.451 2081.552, 2220.394 2081.845 C 2212.260 2082.108, 2209.533 2081.871, 2208.883 2080.845 C 2208.414 2080.105, 2208.024 2075.310, 2208.015 2070.190 L 2208 2060.880 2217.250 2061.083 C 2225.540 2061.265, 2226.500 2061.101, 2226.500 2059.500 C 2226.500 2057.899, 2225.540 2057.735, 2217.250 2057.917 L 2208 2058.120 2208 2048.560 L 2208 2039 2216.800 2039 C 2221.804 2039, 2226.069 2039.469, 2226.687 2040.087 C 2228.058 2041.458, 2229.436 2039.579, 2228.620 2037.452 C 2228.171 2036.282, 2225.480 2036.003, 2214.781 2036.015 C 2207.477 2036.024, 2200.884 2036.421, 2200.130 2036.898 M 2254.130 2036.898 C 2253.006 2037.610, 2253.059 2037.934, 2254.424 2038.697 C 2257.048 2040.166, 2256.929 2080.600, 2254.295 2082.526 C 2252.623 2083.749, 2252.671 2083.879, 2255.001 2084.456 C 2256.376 2084.797, 2263.575 2084.946, 2271 2084.788 L 2284.500 2084.500 2284.832 2081 L 2285.163 2077.500 2282.767 2079.750 C 2279.518 2082.801, 2266.298 2083.092, 2263.655 2080.171 C 2261.235 2077.497, 2261.151 2039.540, 2263.563 2038.614 C 2264.423 2038.284, 2264.847 2037.561, 2264.504 2037.007 C 2263.745 2035.778, 2256.027 2035.697, 2254.130 2036.898 M 2308.531 2036.950 C 2308.208 2037.472, 2308.857 2038.388, 2309.972 2038.985 C 2311.908 2040.021, 2312 2041, 2312 2060.500 C 2312 2080.253, 2311.930 2080.967, 2309.893 2082.057 C 2305.676 2084.314, 2309.792 2085.051, 2325.077 2084.777 L 2340.500 2084.500 2340.813 2081.250 C 2341.172 2077.527, 2340.191 2077.129, 2337.732 2080 C 2336.302 2081.670, 2334.782 2082, 2328.510 2082 C 2316.903 2082, 2317 2082.190, 2317 2059.490 C 2317 2042.380, 2317.147 2040.854, 2318.949 2039.312 C 2320.021 2038.394, 2320.669 2037.274, 2320.390 2036.822 C 2319.681 2035.675, 2309.249 2035.788, 2308.531 2036.950 M 1609.610 2045.577 C 1607.603 2050.371, 1606.194 2054.528, 1606.480 2054.814 C 1607.152 2055.486, 1608.077 2054.546, 1608.421 2052.842 C 1608.571 2052.104, 1609.229 2050.187, 1609.885 2048.583 C 1611.016 2045.816, 1611.143 2045.764, 1612.354 2047.583 C 1613.056 2048.637, 1614.588 2051.863, 1615.760 2054.750 L 1617.889 2060 1611.877 2060 C 1606.208 2060, 1605.904 2059.879, 1606.538 2057.882 C 1607.024 2056.350, 1606.835 2055.888, 1605.855 2056.215 C 1605.110 2056.463, 1604.500 2057.304, 1604.500 2058.083 C 1604.500 2058.863, 1604.275 2059.725, 1604 2060 C 1602.919 2061.081, 1599.942 2068.276, 1600.391 2068.724 C 1601.217 2069.550, 1603.123 2067.869, 1602.722 2066.667 C 1601.846 2064.038, 1604.929 2062.911, 1612.191 2063.206 L 1619.435 2063.500 1622.784 2071.500 C 1624.626 2075.900, 1625.944 2080.490, 1625.714 2081.700 C 1625.146 2084.692, 1629.859 2086.143, 1634.439 2084.385 C 1635.823 2083.854, 1635.732 2083.456, 1633.771 2081.478 C 1632.522 2080.217, 1630.418 2076.331, 1629.096 2072.843 C 1627.774 2069.354, 1625.694 2064.250, 1624.473 2061.500 C 1623.253 2058.750, 1620.558 2052.450, 1618.485 2047.500 C 1616.412 2042.550, 1614.388 2038.131, 1613.987 2037.680 C 1613.587 2037.228, 1611.617 2040.782, 1609.610 2045.577 M 2019.610 2045.577 C 2017.603 2050.371, 2016.194 2054.528, 2016.480 2054.814 C 2017.152 2055.486, 2018.077 2054.546, 2018.421 2052.842 C 2018.571 2052.104, 2019.229 2050.187, 2019.885 2048.583 C 2021.016 2045.816, 2021.143 2045.764, 2022.354 2047.583 C 2023.056 2048.637, 2024.588 2051.863, 2025.760 2054.750 L 2027.889 2060 2021.877 2060 C 2016.208 2060, 2015.904 2059.879, 2016.538 2057.882 C 2017.024 2056.350, 2016.835 2055.888, 2015.855 2056.215 C 2015.110 2056.463, 2014.500 2057.304, 2014.500 2058.083 C 2014.500 2058.863, 2014.275 2059.725, 2014 2060 C 2012.919 2061.081, 2009.942 2068.276, 2010.391 2068.724 C 2011.217 2069.550, 2013.123 2067.869, 2012.722 2066.667 C 2011.846 2064.038, 2014.929 2062.911, 2022.191 2063.206 L 2029.435 2063.500 2032.784 2071.500 C 2034.626 2075.900, 2035.944 2080.490, 2035.714 2081.700 C 2035.146 2084.692, 2039.859 2086.143, 2044.439 2084.385 C 2045.823 2083.854, 2045.732 2083.456, 2043.771 2081.478 C 2042.522 2080.217, 2040.418 2076.331, 2039.096 2072.843 C 2037.774 2069.354, 2035.694 2064.250, 2034.473 2061.500 C 2033.253 2058.750, 2030.558 2052.450, 2028.485 2047.500 C 2026.412 2042.550, 2024.388 2038.131, 2023.987 2037.680 C 2023.587 2037.228, 2021.617 2040.782, 2019.610 2045.577 M 1858.048 2042.136 C 1856.012 2046.351, 1856.097 2048.281, 1858.282 2047.448 C 1859.376 2047.031, 1864 2056.391, 1864 2059.023 C 1864 2060.355, 1853.667 2060.267, 1852.324 2058.924 C 1851.557 2058.157, 1850.956 2058.658, 1850.227 2060.674 C 1849.664 2062.228, 1848.885 2064.287, 1848.495 2065.250 C 1848.074 2066.290, 1848.235 2067, 1848.893 2067 C 1849.502 2067, 1850 2066.100, 1850 2065 C 1850 2063.166, 1850.667 2063, 1858.051 2063 L 1866.102 2063 1867.653 2066.750 C 1868.506 2068.813, 1870.298 2072.910, 1871.636 2075.856 C 1873.355 2079.638, 1873.768 2081.575, 1873.043 2082.448 C 1871.526 2084.276, 1872.822 2085, 1877.608 2085 C 1882.417 2085, 1884.041 2083.627, 1881.096 2082.051 C 1880.018 2081.474, 1878.826 2079.989, 1878.449 2078.751 C 1878.071 2077.513, 1876.964 2074.700, 1875.989 2072.500 C 1875.014 2070.300, 1872.568 2064.450, 1870.554 2059.500 C 1868.540 2054.550, 1866.075 2048.700, 1865.076 2046.500 C 1864.078 2044.300, 1862.947 2041.487, 1862.563 2040.250 C 1861.542 2036.958, 1860.299 2037.478, 1858.048 2042.136 M 2383.946 2040.750 C 2383.393 2042.263, 2382.748 2044.051, 2382.512 2044.724 C 2382.276 2045.397, 2382.802 2046.350, 2383.681 2046.841 C 2384.905 2047.526, 2390 2057.870, 2390 2059.670 C 2390 2059.851, 2387.300 2060, 2384 2060 C 2377.618 2060, 2376.793 2059.180, 2379.532 2055.559 C 2381.186 2053.372, 2381.419 2052, 2380.136 2052 C 2379.661 2052, 2378.472 2054.137, 2377.495 2056.750 C 2376.518 2059.363, 2375.293 2062.043, 2374.773 2062.706 C 2374.253 2063.370, 2374.154 2064.440, 2374.552 2065.085 C 2375.069 2065.920, 2375.538 2065.789, 2376.188 2064.628 C 2376.901 2063.354, 2378.698 2063, 2384.445 2063 L 2391.790 2063 2395.316 2071.809 C 2397.255 2076.654, 2398.765 2081.491, 2398.671 2082.559 C 2398.533 2084.127, 2399.241 2084.561, 2402.355 2084.817 C 2408.587 2085.328, 2409.580 2084.468, 2406.466 2081.255 C 2404.998 2079.740, 2401.796 2073.550, 2399.351 2067.500 C 2396.907 2061.450, 2394.027 2054.592, 2392.953 2052.261 C 2391.879 2049.929, 2391 2047.787, 2391 2047.500 C 2391 2046.040, 2386.654 2038, 2385.865 2038 C 2385.362 2038, 2384.498 2039.237, 2383.946 2040.750 M 1166 2049.500 L 1166 2060 1171.548 2060 C 1176.262 2060, 1177.464 2059.603, 1179.548 2057.354 C 1182.433 2054.241, 1182.836 2048.517, 1180.490 2043.980 C 1178.527 2040.185, 1176.166 2039, 1170.566 2039 L 1166 2039 1166 2049.500 M 1293 2057.865 C 1293 2082.140, 1292.924 2082, 1306.112 2082 C 1316.429 2082, 1321.290 2080.166, 1325.304 2074.759 C 1334.129 2062.872, 1329.940 2047.401, 1316.256 2041.350 C 1311.967 2039.453, 1309.214 2039, 1301.971 2039 L 1293 2039 1293 2057.865 M 1388.955 2039.500 C 1388.930 2039.775, 1388.887 2043.938, 1388.860 2048.750 L 1388.810 2057.500 1394.296 2057.797 C 1399.230 2058.063, 1399.993 2057.824, 1401.891 2055.412 C 1407.305 2048.528, 1402.478 2039, 1393.577 2039 C 1391.060 2039, 1388.980 2039.225, 1388.955 2039.500 M 1667 2049.500 L 1667 2060 1672.577 2060 C 1684.059 2060, 1687.803 2050.146, 1679.701 2041.250 C 1678.066 2039.455, 1676.575 2039, 1672.326 2039 L 1667 2039 1667 2049.500 M 2077 2049.500 L 2077 2060 2082.577 2060 C 2094.059 2060, 2097.803 2050.146, 2089.701 2041.250 C 2088.066 2039.455, 2086.575 2039, 2082.326 2039 L 2077 2039 2077 2049.500 M 2150 2048.500 L 2150 2058 2155.250 2057.968 C 2161.207 2057.932, 2163.041 2056.856, 2164.894 2052.309 C 2167.731 2045.346, 2162.791 2039, 2154.535 2039 L 2150 2039 2150 2048.500 M 1070.651 2046.468 C 1070.341 2047.275, 1070.518 2048.202, 1071.044 2048.527 C 1071.570 2048.852, 1072 2048.191, 1072 2047.059 C 1072 2044.644, 1071.444 2044.401, 1070.651 2046.468 M 2380.616 2048.559 C 2379.825 2050.619, 2380.650 2051.750, 2381.975 2050.425 C 2382.493 2049.907, 2382.548 2048.887, 2382.098 2048.158 C 2381.454 2047.116, 2381.136 2047.202, 2380.616 2048.559 M 1853.746 2052.260 C 1851.951 2056.462, 1852.027 2057.719, 1854.002 2056.499 C 1854.626 2056.113, 1854.895 2055.168, 1854.600 2054.399 C 1854.304 2053.629, 1854.446 2053, 1854.915 2053 C 1855.976 2053, 1857.054 2049.152, 1856.150 2048.592 C 1855.785 2048.367, 1854.703 2050.018, 1853.746 2052.260 M 1551.699 2052.505 C 1550.802 2054.386, 1550.472 2056.174, 1550.965 2056.478 C 1552.128 2057.197, 1553.303 2055.299, 1552.500 2054 C 1552.160 2053.450, 1552.310 2053, 1552.834 2053 C 1554.087 2053, 1555.138 2050.203, 1554.121 2049.575 C 1553.686 2049.306, 1552.596 2050.624, 1551.699 2052.505 M 1961.699 2052.505 C 1960.802 2054.386, 1960.472 2056.174, 1960.965 2056.478 C 1962.128 2057.197, 1963.303 2055.299, 1962.500 2054 C 1962.160 2053.450, 1962.310 2053, 1962.834 2053 C 1964.087 2053, 1965.138 2050.203, 1964.121 2049.575 C 1963.686 2049.306, 1962.596 2050.624, 1961.699 2052.505 M 1069.195 2052.500 C 1069.215 2054.150, 1069.439 2054.704, 1069.693 2053.731 C 1069.947 2052.758, 1069.930 2051.408, 1069.656 2050.731 C 1069.382 2050.054, 1069.175 2050.850, 1069.195 2052.500 M 940.605 2054.588 C 939.211 2058.221, 940.017 2069.113, 941.962 2072.926 C 946.073 2080.984, 958.918 2086.921, 966.534 2084.284 L 969.500 2083.256 965.500 2082.571 C 963.300 2082.193, 960.449 2081.667, 959.164 2081.402 C 955.621 2080.669, 946.969 2072.056, 944.865 2067.167 C 943.839 2064.784, 943 2060.873, 943 2058.476 C 943 2053.976, 941.669 2051.815, 940.605 2054.588 M 1040.500 2055 C 1039.684 2056.320, 1040.880 2058.192, 1042.069 2057.457 C 1043.284 2056.707, 1043.276 2054, 1042.059 2054 C 1041.541 2054, 1040.840 2054.450, 1040.500 2055 M 1067 2057.941 C 1067 2060.356, 1067.556 2060.599, 1068.349 2058.532 C 1068.659 2057.725, 1068.482 2056.798, 1067.956 2056.473 C 1067.430 2056.148, 1067 2056.809, 1067 2057.941 M 1518.844 2058.191 C 1518.420 2064.450, 1518.497 2066.189, 1519.217 2066.634 C 1519.648 2066.900, 1520.064 2066.304, 1520.142 2065.309 C 1520.221 2064.314, 1520.406 2062.040, 1520.555 2060.255 C 1520.704 2058.470, 1520.415 2056.756, 1519.913 2056.446 C 1519.411 2056.136, 1518.930 2056.921, 1518.844 2058.191 M 1928.844 2058.191 C 1928.420 2064.450, 1928.497 2066.189, 1929.217 2066.634 C 1929.648 2066.900, 1930.064 2066.304, 1930.142 2065.309 C 1930.221 2064.314, 1930.406 2062.040, 1930.555 2060.255 C 1930.704 2058.470, 1930.415 2056.756, 1929.913 2056.446 C 1929.411 2056.136, 1928.930 2056.921, 1928.844 2058.191 M 1549.015 2060.250 C 1549.028 2062.069, 1549.216 2062.213, 1550 2061 C 1551.253 2059.061, 1551.253 2058, 1550 2058 C 1549.450 2058, 1549.007 2059.012, 1549.015 2060.250 M 1959.015 2060.250 C 1959.028 2062.069, 1959.216 2062.213, 1960 2061 C 1961.253 2059.061, 1961.253 2058, 1960 2058 C 1959.450 2058, 1959.007 2059.012, 1959.015 2060.250 M 1038.609 2060.576 C 1037.764 2062.779, 1038.692 2063.708, 1040.217 2062.183 C 1041.055 2061.345, 1041.089 2060.689, 1040.333 2059.933 C 1039.576 2059.176, 1039.074 2059.364, 1038.609 2060.576 M 1064.651 2062.468 C 1064.341 2063.275, 1064.518 2064.202, 1065.044 2064.527 C 1065.570 2064.852, 1066 2064.191, 1066 2063.059 C 1066 2060.644, 1065.444 2060.401, 1064.651 2062.468 M 1388.945 2061.750 C 1388.461 2068.365, 1389.113 2079.431, 1390.053 2080.563 C 1390.858 2081.534, 1393.289 2082, 1397.550 2082 C 1403.170 2082, 1404.080 2081.714, 1405.927 2079.365 C 1409.614 2074.678, 1407.953 2064.651, 1403.055 2062.030 C 1400.853 2060.851, 1389.028 2060.617, 1388.945 2061.750 M 2150 2069.929 C 2150 2080.964, 2150.762 2082, 2158.883 2082 C 2165.011 2082, 2168.166 2080.205, 2169.517 2075.947 C 2170.566 2072.643, 2169.170 2067.356, 2166.371 2064.029 C 2163.986 2061.195, 2163.377 2061, 2156.911 2061 L 2150 2061 2150 2069.929 M 1546.605 2064.588 C 1545.800 2066.684, 1545.838 2067, 1546.893 2067 C 1548.143 2067, 1549.096 2064.177, 1548.061 2063.538 C 1547.593 2063.248, 1546.937 2063.721, 1546.605 2064.588 M 1956.605 2064.588 C 1955.800 2066.684, 1955.838 2067, 1956.893 2067 C 1958.143 2067, 1959.096 2064.177, 1958.061 2063.538 C 1957.593 2063.248, 1956.937 2063.721, 1956.605 2064.588 M 1063.070 2068.750 C 1063.133 2071.187, 1063.238 2071.272, 1064 2069.500 C 1065.174 2066.769, 1065.174 2066, 1064 2066 C 1063.450 2066, 1063.032 2067.238, 1063.070 2068.750 M 2371.746 2070.260 C 2369.951 2074.462, 2370.027 2075.719, 2372.002 2074.499 C 2372.626 2074.113, 2372.895 2073.168, 2372.600 2072.399 C 2372.304 2071.629, 2372.446 2071, 2372.915 2071 C 2373.976 2071, 2375.054 2067.152, 2374.150 2066.592 C 2373.785 2066.367, 2372.703 2068.018, 2371.746 2070.260 M 1846.500 2069 C 1846.160 2069.550, 1846.190 2070.498, 1846.566 2071.107 C 1847.238 2072.194, 1848.948 2070.528, 1848.985 2068.750 C 1849.007 2067.654, 1847.221 2067.834, 1846.500 2069 M 1516.622 2073.141 C 1516.280 2074.851, 1516 2077.491, 1516 2079.008 C 1516 2080.970, 1515.393 2081.925, 1513.899 2082.316 C 1510.913 2083.097, 1512.483 2084.933, 1515.766 2084.499 C 1517.270 2084.300, 1518.893 2084.107, 1519.372 2084.069 C 1519.852 2084.031, 1519.719 2083.366, 1519.076 2082.591 C 1518.314 2081.674, 1518.136 2079.453, 1518.565 2076.220 C 1519.297 2070.703, 1517.636 2068.071, 1516.622 2073.141 M 1597.662 2074.177 C 1596.760 2076.475, 1596.242 2078.575, 1596.511 2078.844 C 1597.166 2079.499, 1598.098 2078.496, 1598.373 2076.842 C 1598.496 2076.104, 1599.137 2074.517, 1599.798 2073.316 C 1601.220 2070.731, 1601.298 2070, 1600.152 2070 C 1599.685 2070, 1598.565 2071.880, 1597.662 2074.177 M 1926.622 2073.141 C 1926.280 2074.851, 1926 2077.491, 1926 2079.008 C 1926 2080.970, 1925.393 2081.925, 1923.899 2082.316 C 1920.913 2083.097, 1922.483 2084.933, 1925.766 2084.499 C 1927.270 2084.300, 1928.893 2084.107, 1929.372 2084.069 C 1929.852 2084.031, 1929.719 2083.366, 1929.076 2082.591 C 1928.314 2081.674, 1928.136 2079.453, 1928.565 2076.220 C 1929.297 2070.703, 1927.636 2068.071, 1926.622 2073.141 M 2007.662 2074.177 C 2006.760 2076.475, 2006.242 2078.575, 2006.511 2078.844 C 2007.166 2079.499, 2008.098 2078.496, 2008.373 2076.842 C 2008.496 2076.104, 2009.137 2074.517, 2009.798 2073.316 C 2011.220 2070.731, 2011.298 2070, 2010.152 2070 C 2009.685 2070, 2008.565 2071.880, 2007.662 2074.177 M 1844.058 2075.715 C 1843.341 2077.700, 1841.627 2080.368, 1840.249 2081.645 C 1838.162 2083.579, 1838.006 2084.065, 1839.314 2084.567 C 1842.791 2085.901, 1844.503 2084.621, 1844.439 2080.734 C 1844.405 2078.680, 1844.690 2077, 1845.072 2077 C 1846.064 2077, 1846.957 2073.091, 1846.088 2072.554 C 1845.689 2072.308, 1844.776 2073.730, 1844.058 2075.715 M 2368.404 2078.526 C 2368.055 2079.916, 2366.909 2081.513, 2365.857 2082.077 C 2363.447 2083.366, 2364.366 2085, 2367.500 2085 C 2370.085 2085, 2371.630 2083.508, 2370.055 2082.534 C 2369.423 2082.143, 2369.417 2081.034, 2370.038 2079.399 C 2371.235 2076.252, 2371.233 2076, 2370.019 2076 C 2369.480 2076, 2368.753 2077.137, 2368.404 2078.526 M 1593.653 2081.831 C 1591.755 2083.928, 1592.379 2085, 1595.500 2085 C 1598.473 2085, 1599.094 2084.123, 1597.701 2081.892 C 1596.233 2079.542, 1595.731 2079.534, 1593.653 2081.831 M 2003.653 2081.831 C 2001.755 2083.928, 2002.379 2085, 2005.500 2085 C 2008.473 2085, 2009.094 2084.123, 2007.701 2081.892 C 2006.233 2079.542, 2005.731 2079.534, 2003.653 2081.831"/><rect x="686" y="1688" width="250" height="2"/><rect x="2358" y="1688" width="250" height="2"/></g></svg>