<svg viewBox="0 0 300 172" xmlns="http://www.w3.org/2000/svg" fill="none" stroke="currentColor" stroke-width="7.6" stroke-linecap="round" stroke-linejoin="round">
  <path d="M 92 50 L 99 30 C 100 26 103 25 107 26 L 129 32 C 133 33 134 37 131 40 L 123 55"/>
  <path d="M 108 33 C 158 20 214 22 258 47"/>
  <path d="M 74 62 C 104 57 150 54 258 47"/>
  <path d="M 74 62 C 98 96 168 102 226 80 C 244 73 254 62 258 47"/>
  <path stroke-width="6.6" d="M 56 116 C 108 98 158 128 210 108 C 226 102 240 108 252 105"/>
  <path stroke-width="6" d="M 86 130 C 130 117 176 135 214 122"/>
</svg>
